<svg width="884" height="1024" viewBox="0 0 884 1024" fill="none" xmlns="http://www.w3.org/2000/svg">
<g clip-path="url(#clip0_28_546)">
<path fill-rule="evenodd" clip-rule="evenodd" d="M61.984 440.623C28.678 448.949 12.038 482.281 16.198 511.436C24.518 565.584 107.757 578.073 124.41 515.599C136.89 473.941 103.61 432.296 61.984 440.623ZM86.944 453.112C28.678 453.112 20.358 523.926 61.984 536.428C103.597 548.918 128.57 478.104 86.944 453.112Z" fill="black"/>
<path fill-rule="evenodd" clip-rule="evenodd" d="M49.4909 482.281C45.3309 486.444 41.1709 494.771 41.1709 503.097C45.3309 519.763 70.3039 515.6 70.3039 503.097C78.6239 478.118 49.4909 473.954 49.4909 482.281Z" fill="black"/>
<path fill-rule="evenodd" clip-rule="evenodd" d="M374.14 357.333C369.98 349.006 340.847 357.333 332.514 361.496C299.234 378.149 286.741 415.644 307.554 444.799C336.674 494.783 411.593 486.457 424.086 423.983C428.246 373.985 378.3 344.83 374.14 357.333ZM374.14 365.659L369.98 369.822C332.514 373.986 307.541 407.317 328.354 436.473C349.167 465.628 394.953 465.615 407.433 423.983C411.593 378.149 378.3 369.822 374.14 365.659Z" fill="black"/>
<path fill-rule="evenodd" clip-rule="evenodd" d="M361.66 415.63C365.82 432.296 390.78 432.296 394.94 415.63C393.934 411.987 391.761 408.774 388.756 406.485C385.75 404.196 382.077 402.956 378.3 402.956C374.523 402.956 370.85 404.196 367.845 406.485C364.839 408.774 362.666 411.987 361.66 415.63Z" fill="black"/>
<path fill-rule="evenodd" clip-rule="evenodd" d="M107.77 461.452C136.89 440.636 174.356 432.296 211.822 423.97C240.955 415.643 274.248 407.317 303.381 415.643C311.701 419.807 315.861 407.304 307.541 403.141C257.608 382.312 145.223 398.978 99.437 453.125C91.117 457.288 99.4499 469.778 107.77 461.452Z" fill="black"/>
<path fill-rule="evenodd" clip-rule="evenodd" d="M53.6511 553.094C49.4911 628.071 95.2771 678.055 111.917 715.537C128.57 753.032 141.063 790.513 182.676 803.016C365.807 853 532.298 565.584 407.433 444.799C403.273 440.636 394.953 448.962 399.113 453.125C503.165 569.76 349.167 823.845 186.836 782.187C153.556 773.861 145.223 736.366 128.57 707.21C111.93 673.892 61.9712 619.744 61.9712 553.094C66.1312 544.768 53.6511 544.768 53.6511 553.094Z" fill="black"/>
<path fill-rule="evenodd" clip-rule="evenodd" d="M307.541 465.628C365.82 503.11 378.3 673.892 299.221 707.224C274.261 715.55 236.795 723.876 211.822 707.224C220.142 711.387 228.462 715.55 236.782 715.55C340.847 723.876 361.647 640.573 320.034 653.063C290.901 665.553 274.248 707.211 228.462 678.055C224.302 673.892 220.142 673.892 215.982 669.729C207.662 665.566 199.342 673.892 195.169 678.055C186.849 669.729 199.329 644.737 186.849 619.744C170.209 590.589 116.09 582.25 132.743 532.265V536.428C145.223 586.426 191.009 498.96 253.435 486.457C282.581 478.131 303.381 490.62 307.541 469.791V465.628Z" fill="black"/>
<path fill-rule="evenodd" clip-rule="evenodd" d="M124.41 540.604C107.77 590.589 166.036 603.092 178.529 632.247C191.009 653.063 161.876 719.713 228.475 732.216C261.768 736.379 320.034 723.889 345.007 686.395C394.953 598.915 361.647 378.162 195.169 478.13C166.049 490.62 132.73 515.612 124.41 540.604ZM141.063 532.278C107.77 578.099 174.369 588.221 195.169 621.553C211.809 654.871 178.529 703.047 228.475 707.224C249.275 711.387 282.581 703.06 299.221 694.721C369.98 657.239 369.98 353.169 157.716 515.612C152.334 519.736 142.571 530.014 141.063 532.278Z" fill="black"/>
<path fill-rule="evenodd" clip-rule="evenodd" d="M44.6159 388.452C73.7619 413.445 69.5889 413.445 123.708 438.437C132.028 442.6 136.188 434.274 132.028 425.947C94.5749 396.792 94.5619 392.616 52.9489 375.963C44.6289 375.963 36.2959 384.289 44.6159 388.452Z" fill="black"/>
<path fill-rule="evenodd" clip-rule="evenodd" d="M236.795 403.141C199.329 303.172 95.277 369.809 66.144 373.985C45.344 378.149 37.011 369.822 37.011 378.149C32.851 390.638 57.811 390.638 70.304 390.638C116.09 386.475 191.009 340.654 228.462 411.454C228.462 415.631 236.795 411.467 236.795 403.141Z" fill="black"/>
<path fill-rule="evenodd" clip-rule="evenodd" d="M465.712 128.227C511.498 140.729 490.672 211.543 486.512 257.351C478.192 378.149 482.352 528.102 457.392 636.41C457.392 644.737 465.712 648.9 469.872 640.573C503.165 507.273 507.325 411.467 511.498 257.351C511.498 228.209 519.818 182.387 507.338 149.056C494.845 115.737 465.712 111.574 461.552 119.913C461.552 124.077 461.552 128.227 465.712 128.227Z" fill="black"/>
<path fill-rule="evenodd" clip-rule="evenodd" d="M111.93 694.721C-42.0679 761.371 -104.507 807.192 -270.985 853.014C-279.305 857.177 -275.145 865.503 -266.825 865.503C-25.4149 807.192 -12.9349 769.698 116.09 707.224C124.41 703.06 116.09 690.545 111.93 694.721Z" fill="black"/>
<path fill-rule="evenodd" clip-rule="evenodd" d="M182.689 794.69C191.009 915.488 191.009 861.34 203.489 940.48C215.969 1015.46 191.009 1040.45 203.489 1044.61C207.649 1044.61 211.809 1044.61 211.809 1040.45C236.795 948.806 232.622 982.125 195.169 798.853C195.169 782.2 182.689 786.363 182.689 794.69Z" fill="black"/>
<path fill-rule="evenodd" clip-rule="evenodd" d="M436.566 594.752C494.845 815.519 515.658 828.021 540.631 936.304C561.431 1032.11 548.951 1040.45 561.431 1040.45C565.591 1040.45 565.591 1036.29 565.591 1032.12C565.591 873.83 503.165 778.037 444.899 586.426C444.899 582.263 432.406 586.426 436.566 594.752Z" fill="black"/>
<path fill-rule="evenodd" clip-rule="evenodd" d="M-270.036 1034.76C-41.1062 918.142 8.82675 976.452 -261.716 880.647C-299.156 868.157 -328.302 855.667 -369.915 839.002C-182.624 755.699 -91.0652 734.87 -120.185 709.878C-149.331 689.048 -270.036 593.243 -303.329 572.414C-136.838 593.243 -170.144 614.085 -357.435 364.163C-211.757 439.139 -111.865 497.45 -107.705 480.797C-103.545 472.471 -111.865 476.634 -195.117 434.976C-378.248 343.334 -386.568 322.518 -394.888 335.007C-399.048 339.171 -399.048 343.334 -394.888 347.497C-340.782 422.487 -307.489 472.458 -232.57 564.113L-344.955 547.435C-357.435 547.435 -361.595 559.924 -353.275 568.264C-311.649 601.595 -178.464 701.551 -153.491 722.38C-174.291 734.87 -195.117 743.209 -215.93 751.535C-436.514 851.504 -453.167 839.015 -365.755 868.17C-332.475 880.66 -303.329 893.149 -270.036 901.489C-224.25 918.142 -174.304 930.644 -128.518 943.147C-107.718 951.473 -103.545 938.984 -186.784 980.629C-286.676 1026.45 -282.516 1026.45 -282.516 1034.78L-270.036 1034.76Z" fill="black"/>
<path fill-rule="evenodd" clip-rule="evenodd" d="M-100.88 483.725C-130.026 387.932 -184.132 275.474 -225.745 179.668C-146.666 250.481 -75.907 308.792 7.33203 367.103C32.292 383.756 23.972 329.621 28.132 171.342C28.132 175.505 98.904 317.119 115.544 317.119C128.024 317.119 119.704 312.955 157.17 208.823C182.13 142.173 207.116 79.6992 227.916 13.0489C252.889 138.01 273.702 287.963 286.195 292.126C294.515 296.29 302.835 283.8 423.54 204.66C406.9 333.784 394.407 312.955 498.459 258.808C735.709 138.01 739.869 142.173 735.709 133.847C731.549 125.52 723.216 133.847 689.923 146.336C660.777 158.839 448.513 262.971 427.713 275.474C444.353 138.01 469.313 150.513 290.355 267.147C269.555 167.178 257.062 63.0334 232.089 -32.7593C227.929 -45.2489 215.436 -45.2489 211.276 -32.7593C182.143 71.3728 132.197 179.668 103.064 275.474C73.918 225.489 44.785 175.505 23.972 121.357C19.812 108.868 3.17203 113.031 3.17203 125.52C-5.14798 192.158 -0.987976 267.134 -5.14798 342.111C-88.4 283.8 -175.799 212.987 -254.878 146.349C-263.198 142.186 -271.531 146.349 -267.358 154.676C-225.758 254.645 -154.986 383.769 -121.693 496.227C-109.213 496.227 -96.72 492.051 -100.88 483.725Z" fill="black"/>
<path fill-rule="evenodd" clip-rule="evenodd" d="M824.421 558.051C770.315 591.356 619.697 694.708 598.897 715.537C565.591 748.855 719.589 744.692 844.467 790.513C794.508 815.506 723.762 848.824 665.483 865.49C657.163 865.49 657.163 877.98 661.323 882.143C686.296 902.972 711.269 907.135 773.708 932.14C619.697 986.288 607.217 961.283 657.163 1011.28C694.616 1048.76 698.789 1048.76 702.949 1044.6C711.269 1036.27 686.309 1023.78 653.003 986.288C665.483 982.125 811.161 944.63 811.161 932.14C811.161 923.814 802.841 923.814 790.361 919.651C786.201 919.651 711.269 886.319 707.109 886.319C677.976 873.83 673.816 894.646 877.76 798.84C886.08 794.677 886.08 782.187 877.76 778.024C765.375 732.203 628.03 723.863 636.35 715.537C840.294 557.257 877.76 561.42 869.44 540.591C865.28 528.102 856.947 536.428 811.161 540.591C557.271 565.584 598.897 561.42 594.737 561.42C682.136 461.452 661.323 478.117 611.377 473.941C590.577 473.941 565.591 469.778 544.791 469.778C740.402 132.39 752.895 132.39 740.402 128.227C732.082 124.063 732.082 128.227 698.789 186.537C582.244 369.822 682.136 199.027 523.978 473.941C519.818 478.104 523.978 486.444 532.298 486.444C565.591 490.607 603.057 494.77 628.03 494.77C548.951 594.739 511.485 586.413 711.269 569.747C749.056 566.552 786.78 562.662 824.421 558.051Z" fill="black"/>
<path fill-rule="evenodd" clip-rule="evenodd" d="M166.036 503.11C170.196 519.776 170.196 519.763 182.676 528.102C186.836 536.428 199.329 528.102 195.156 519.776C190.996 498.96 190.996 498.96 178.516 494.783C174.356 486.457 161.876 494.783 166.036 503.11Z" fill="black"/>
<path fill-rule="evenodd" clip-rule="evenodd" d="M232.635 465.628C232.635 478.118 228.475 478.118 240.955 498.947C245.115 507.273 253.435 503.11 253.435 494.783C253.435 478.131 257.595 478.131 245.115 461.465C245.115 453.138 232.635 457.302 232.635 465.628Z" fill="black"/>
<path fill-rule="evenodd" clip-rule="evenodd" d="M232.635 682.218C224.315 694.708 224.315 694.708 232.635 711.374C232.635 719.7 245.115 719.7 245.115 711.374C253.435 694.721 253.435 698.884 245.115 682.231C245.115 678.055 232.635 673.879 232.635 682.218Z" fill="black"/>
<path fill-rule="evenodd" clip-rule="evenodd" d="M282.568 669.729C278.408 682.218 278.408 686.382 290.888 703.047C295.048 711.374 303.381 707.211 303.381 698.884C303.381 682.231 307.541 682.231 295.061 665.566C290.901 661.402 278.408 661.402 282.568 669.729Z" fill="black"/>
</g>
<defs>
<clipPath id="clip0_28_546">
<rect width="1300" height="1301" fill="white" transform="translate(-416 -147)"/>
</clipPath>
</defs>
</svg>
