<svg width="777" height="718" viewBox="0 0 777 718" fill="none" xmlns="http://www.w3.org/2000/svg">
<path fill-rule="evenodd" clip-rule="evenodd" d="M641.269 69.2267C605.346 57.3222 582.44 48.7017 493.59 67.3877C467.46 72.7242 443.38 80.7289 422.476 96.7384C359.756 150.103 331.013 270.191 359.756 342.242C401.564 454.309 537.456 523.699 644.597 462.322C673.34 446.312 696.857 419.63 717.761 392.947C761.997 336.487 790.25 254.387 770.029 182.131C756.964 139.439 707.317 91.4101 665.509 72.7242C660.283 70.0559 657.662 78.0607 662.888 80.7289C681.179 88.7337 696.857 99.4067 712.543 115.424C811.998 216.982 743.521 376.059 639.371 448.98C540.069 505.013 414.637 438.307 375.434 334.237C349.304 264.855 375.434 152.78 432.92 102.075C461.671 78.0607 547.908 64.7194 587.103 67.3877C605.394 70.0559 621.08 72.7242 639.363 78.0607C644.589 80.7289 648.078 71.4763 641.269 69.2267Z" fill="black"/>
<path fill-rule="evenodd" clip-rule="evenodd" d="M453.832 246.185C453.832 248.854 440.767 270.2 438.154 272.868C432.928 275.536 438.154 283.541 443.38 278.204C454.789 270.758 461.101 261.325 461.671 246.185C461.671 243.517 455.239 241.645 453.832 246.185Z" fill="black"/>
<path fill-rule="evenodd" clip-rule="evenodd" d="M477.349 246.177C477.349 251.513 477.349 255.002 479.102 262.137C481.715 272.81 487.809 280.864 500.874 283.532C506.1 286.2 508.713 278.196 503.487 275.527C495.648 270.191 490.422 256.85 485.196 243.508C482.575 238.172 477.349 240.84 477.349 246.177Z" fill="black"/>
<path fill-rule="evenodd" clip-rule="evenodd" d="M503.479 246.177C513.931 280.873 555.739 264.855 592.329 251.514C605.394 246.177 626.306 238.172 647.21 227.499C652.436 224.831 649.823 216.826 644.597 219.495C610.628 232.836 568.812 243.509 547.908 248.845C532.23 254.182 516.552 256.85 508.705 240.841C508.705 238.172 500.866 240.841 503.479 246.177Z" fill="black"/>
<path fill-rule="evenodd" clip-rule="evenodd" d="M521.778 262.186C516.552 339.574 626.298 342.234 655.049 275.527C668.114 248.845 657.662 216.826 647.21 219.494C639.371 224.831 660.275 235.504 644.597 270.191C618.467 320.896 529.617 323.556 529.617 262.186C529.617 259.518 521.778 256.85 521.778 262.186Z" fill="black"/>
<path fill-rule="evenodd" clip-rule="evenodd" d="M577.769 270.454C574.038 269.034 567.856 272.745 566.248 278.516C563.635 283.853 572.873 292.982 580.712 287.646C590.392 281.053 587.682 271.768 577.769 270.454C580.382 270.454 580.382 270.454 577.769 270.454Z" fill="black"/>
<path fill-rule="evenodd" clip-rule="evenodd" d="M451.219 374.269C477.349 342.25 508.705 328.901 537.456 360.92C540.069 366.256 547.908 360.92 542.682 355.583C529.617 336.906 503.487 323.564 482.575 331.569C466.897 339.574 453.832 355.583 445.993 368.925C440.767 374.261 448.606 376.946 451.219 374.269Z" fill="black"/>
<path fill-rule="evenodd" clip-rule="evenodd" d="M506.1 374.261C519.165 374.261 519.165 379.598 521.778 374.261C524.391 368.925 511.326 363.588 506.1 360.92C487.801 355.583 472.123 371.593 477.349 376.929C479.962 382.266 485.188 374.261 506.1 374.261Z" fill="black"/>
<path fill-rule="evenodd" clip-rule="evenodd" d="M346.691 235.496C364.982 246.169 385.886 262.178 409.403 262.178C435.533 259.51 440.759 235.496 432.928 232.828C422.476 230.159 435.541 259.51 383.273 240.832C346.691 227.491 346.691 224.823 344.078 230.159C344.078 232.828 346.691 235.496 346.691 235.496Z" fill="black"/>
<path fill-rule="evenodd" clip-rule="evenodd" d="M357.143 294.213C362.369 299.55 372.821 307.555 383.273 307.555C427.702 312.891 432.928 251.521 419.855 251.521C412.024 251.521 419.855 267.531 406.79 283.54C396.338 296.882 372.821 294.213 359.756 286.209C357.143 286.209 351.917 291.545 357.143 294.213Z" fill="black"/>
<path d="M375.434 278.204C380.66 283.541 391.112 278.204 391.112 272.868C391.112 270.199 388.499 267.531 385.886 264.863C378.771 260.208 366.011 268.582 375.434 278.204Z" fill="black"/>
<path fill-rule="evenodd" clip-rule="evenodd" d="M665.502 443.644C715.157 497.009 730.835 585.069 738.666 657.12C738.666 662.457 746.513 662.457 746.513 657.12C738.674 569.06 736.061 499.677 670.728 438.307C665.502 432.971 660.276 438.307 665.502 443.644Z" fill="black"/>
<path fill-rule="evenodd" clip-rule="evenodd" d="M637.297 644.272C626.845 537.542 617.326 403.94 527.004 347.57C479.97 318.22 422.476 320.888 351.917 382.266C349.304 384.934 349.304 384.934 351.917 387.602C357.143 392.939 359.756 384.934 380.668 368.916C464.284 307.547 566.199 339.566 602.789 513.018C615.854 571.72 623.693 678.466 623.693 681.135C626.306 686.471 631.532 686.471 634.145 681.135C675.953 614.42 693.336 521.992 677.65 444.604C677.65 439.268 669.811 441.936 669.811 447.273C677.65 510.194 665.686 570.488 637.297 644.272Z" fill="black"/>
<path fill-rule="evenodd" clip-rule="evenodd" d="M351.547 383.152C288.835 457.863 294.061 564.61 325.417 655.338C328.03 660.675 337.131 651.907 337.131 646.57C313.614 569.183 309.739 449.858 356.773 388.489C361.999 383.152 356.773 380.484 351.547 383.152Z" fill="black"/>
<path fill-rule="evenodd" clip-rule="evenodd" d="M333.063 659.838C427.14 598.468 456.075 559.281 521.408 484.562C524.021 481.894 518.795 476.557 516.182 479.226C471.753 527.254 379.84 606.399 327.58 646.422C319.741 649.091 327.837 662.506 333.063 659.838Z" fill="black"/>
<path fill-rule="evenodd" clip-rule="evenodd" d="M223.872 649.115C263.067 651.783 255.228 654.452 320.553 649.115C325.779 649.115 325.779 641.11 320.553 641.11C273.519 638.442 270.906 635.774 223.864 641.11C218.638 641.11 218.646 649.115 223.872 649.115Z" fill="black"/>
<path fill-rule="evenodd" clip-rule="evenodd" d="M362.377 649.115C508.705 657.128 529.609 649.115 626.306 651.792C631.532 651.792 631.532 643.779 626.306 643.779C472.123 635.774 469.51 641.111 362.369 641.111C357.143 641.111 357.151 649.115 362.377 649.115Z" fill="black"/>
<path fill-rule="evenodd" clip-rule="evenodd" d="M652.179 652.408C675.704 657.744 670.478 655.076 696.608 652.408C701.834 652.408 701.834 644.403 696.608 644.403C670.478 639.066 665.252 641.726 652.179 644.403C646.953 644.403 646.953 652.408 652.179 652.408Z" fill="black"/>
<path fill-rule="evenodd" clip-rule="evenodd" d="M696.118 649.115C602.05 705.149 651.697 675.798 560.242 739.836C555.016 742.504 560.242 750.509 565.468 747.841C654.31 697.144 672.609 678.466 701.344 657.12C703.965 651.784 701.344 646.447 696.118 649.115Z" fill="black"/>
<path fill-rule="evenodd" clip-rule="evenodd" d="M698.964 649.107C696.351 678.466 696.351 681.126 704.19 721.158C704.19 726.495 712.029 726.495 712.029 721.158C712.029 678.466 714.642 689.139 706.803 649.107C706.803 643.771 698.964 643.771 698.964 649.107Z" fill="black"/>
<path fill-rule="evenodd" clip-rule="evenodd" d="M22.655 243.509C46.172 243.509 87.9881 248.845 210.807 254.182C216.033 254.182 216.033 246.177 210.807 246.177C135.022 238.164 116.731 230.167 20.042 235.504C17.429 235.504 17.429 243.509 22.655 243.509Z" fill="black"/>
<path fill-rule="evenodd" clip-rule="evenodd" d="M210.807 278.196C210.807 591.342 207.752 290.634 210.365 592.163C192.074 605.512 192.074 605.512 184.235 608.172C168.557 610.849 150.266 605.512 152.879 616.185C152.879 618.853 155.492 618.853 158.105 618.853C168.557 616.185 176.396 618.853 186.848 618.853C197.3 616.185 199.913 616.185 218.204 602.844C228.656 597.507 218.646 307.547 218.646 280.864C218.646 272.859 210.807 272.859 210.807 278.196Z" fill="black"/>
<path fill-rule="evenodd" clip-rule="evenodd" d="M114.616 365.788C161.65 293.737 161.65 293.737 172.102 288.401C190.401 277.728 219.144 272.391 213.918 264.387C213.918 261.718 211.305 261.718 208.692 261.718C161.658 285.733 164.271 248.377 106.777 360.452C104.164 365.788 112.003 371.125 114.616 365.788Z" fill="black"/>
<path fill-rule="evenodd" clip-rule="evenodd" d="M14.8082 280.864C51.3902 280.864 108.884 286.201 148.087 288.861C132.409 403.612 142.861 505.013 142.861 611.752C142.861 617.088 150.7 617.088 150.7 611.752C153.313 566.383 153.313 411.616 155.926 379.589C161.152 286.201 166.378 280.856 161.152 275.519C155.926 267.515 30.4942 270.183 14.8082 270.183C9.58217 272.851 9.58217 280.864 14.8082 280.864Z" fill="black"/>
<path fill-rule="evenodd" clip-rule="evenodd" d="M1.74288 360.912C43.5509 368.925 64.4629 366.256 101.045 371.593C93.2059 448.98 98.4319 502.345 103.658 577.064C103.658 595.742 124.562 606.415 140.24 617.096C145.466 619.765 148.087 614.42 145.466 611.76C135.014 603.747 116.731 593.074 116.731 579.741C116.731 467.658 114.118 456.985 116.731 408.948C119.344 366.256 121.957 360.92 114.118 358.252C80.1409 355.583 35.7199 355.583 9.58189 352.915C-0.870116 352.915 -3.48312 360.912 1.74288 360.912Z" fill="black"/>
<path fill-rule="evenodd" clip-rule="evenodd" d="M14.7436 621.908C38.3651 623.41 64.7202 627.45 147.99 618C153.216 617.745 152.831 609.749 147.613 610.003C137.169 610.521 102.991 606.867 69.0618 608.534C50.7869 609.437 22.1967 613.517 16.9787 613.78C9.14775 614.158 9.52563 622.154 14.7436 621.908Z" fill="black"/>
<path fill-rule="evenodd" clip-rule="evenodd" d="M6.97684 657.129C38.3328 657.129 121.949 662.465 158.539 665.125V689.139C101.053 689.139 56.6238 689.139 4.36384 691.816C-0.862164 691.816 -0.862164 699.821 4.36384 699.821C161.152 699.821 171.604 710.494 171.604 697.152C171.604 667.793 174.217 654.46 163.765 654.46C106.279 646.447 56.6238 646.792 6.97684 646.792C4.36384 644.124 1.75084 657.129 6.97684 657.129Z" fill="black"/>
<path fill-rule="evenodd" clip-rule="evenodd" d="M161.152 659.789C182.056 657.12 197.734 659.789 216.033 659.789C234.324 659.789 231.711 657.12 231.711 667.793C231.711 673.13 234.324 673.13 210.807 681.135C168.999 697.144 166.378 694.476 166.378 702.481C166.378 705.149 168.991 705.149 171.604 705.149C255.228 683.803 250.002 686.471 242.163 651.784C239.55 643.779 229.098 646.447 216.033 646.447C195.129 646.447 176.83 649.116 158.547 654.452C155.926 651.784 158.547 659.789 161.152 659.789Z" fill="black"/>
<path fill-rule="evenodd" clip-rule="evenodd" d="M-11.322 416.961C4.356 416.961 22.6551 419.63 40.938 419.63C14.808 475.671 -11.322 553.059 -27 609.1C-27 611.768 -27 614.437 -24.387 614.437C-19.161 617.105 -21.774 617.105 1.743 553.067C56.624 408.965 59.2371 414.301 54.003 411.633C51.398 406.297 54.003 408.965 -11.322 408.965C-16.548 408.965 -16.548 416.961 -11.322 416.961Z" fill="black"/>
<path fill-rule="evenodd" clip-rule="evenodd" d="M6.97713 665.133C12.2031 646.456 22.6551 622.441 43.5591 550.39C64.4631 483.676 59.2371 505.022 56.6241 414.293C56.6241 411.625 54.0111 411.625 51.3981 411.625C46.1721 411.625 48.7851 411.625 46.1721 467.666C43.5591 523.7 14.8161 566.4 -3.48291 665.133C-0.86991 667.802 4.36413 670.47 6.97713 665.133Z" fill="black"/>
<path fill-rule="evenodd" clip-rule="evenodd" d="M111.497 585.077C77.5279 582.409 82.7539 579.741 27.8809 587.746C22.6549 587.746 22.6549 595.75 27.8809 595.75C69.6889 598.419 69.6889 598.419 111.497 593.082C116.723 593.082 116.723 585.077 111.497 585.077Z" fill="black"/>
</svg>
